<?xml version="1.0" encoding="utf-8"?>
<!-- Generator: Adobe Illustrator 22.1.0, SVG Export Plug-In . SVG Version: 6.00 Build 0)  -->
<svg version="1.1" id="Capa_1" xmlns="http://www.w3.org/2000/svg" xmlns:xlink="http://www.w3.org/1999/xlink" x="0px" y="0px"
	 viewBox="0 0 512 512" style="enable-background:new 0 0 512 512;" xml:space="preserve">
<style type="text/css">
	.st0{fill:#1D304A;}
	.st1{fill:#B8860D;}
	.st2{fill:#45B545;}
	.st3{fill:#218421;}
	.st4{fill:#56296B;}
	.st5{fill:#2A682A;}
	.st6{fill:#CA61E2;}
	.st7{fill:#AD50C9;}
	.st8{fill:#D684EF;}
</style>
<g>
	<path class="st0" d="M256,500c-65.2,0-126.4-25.4-172.5-71.5C37.4,382.4,12,321.2,12,256S37.4,129.6,83.5,83.5S190.8,12,256,12
		s126.4,25.4,172.5,71.5C474.6,129.6,500,190.8,500,256s-25.4,126.4-71.5,172.5C382.4,474.6,321.2,500,256,500z"/>
	<path class="st1" d="M256,15c133.1,0,241,107.9,241,241S389.1,497,256,497S15,389.1,15,256S122.9,15,256,15 M256,9
		c-33.3,0-65.7,6.5-96.1,19.4C130.4,40.9,104,58.7,81.3,81.3c-22.7,22.7-40.5,49.1-52.9,78.5C15.5,190.3,9,222.7,9,256
		s6.5,65.7,19.4,96.1c12.4,29.4,30.2,55.8,52.9,78.5c22.7,22.7,49.1,40.5,78.5,52.9c30.5,12.9,62.8,19.4,96.1,19.4
		s65.7-6.5,96.1-19.4c29.4-12.4,55.8-30.2,78.5-52.9c22.7-22.7,40.5-49.1,52.9-78.5c12.9-30.5,19.4-62.8,19.4-96.1
		s-6.5-65.7-19.4-96.1c-12.4-29.4-30.2-55.8-52.9-78.5c-22.7-22.7-49.1-40.5-78.5-52.9C321.7,15.5,289.3,9,256,9L256,9z"/>
</g>
<path class="st2" d="M252.7,49.6l26.1,26.1l-26.1,26.1c-45.5,45.5-119.3,45.5-164.8,0L61.8,75.7l26.1-26.1
	C133.4,4.1,207.2,4.1,252.7,49.6z"/>
<path class="st3" d="M252.7,49.6l26.1,26.1l0,0h-217l26.1-26.1C133.4,4.1,207.2,4.1,252.7,49.6z"/>
<path class="st4" d="M411.3,137.2l60,227.2c-6.8,13.6-14.9,26.4-24.1,38.3c-5.9,7.7-12.3,15.1-19.1,22c-1.1,1.1-2.2,2.3-3.4,3.4
	c-3,3-6.2,5.9-9.4,8.7c-7.5,6.6-15.4,12.7-23.6,18.4c-10.5,7.2-21.6,13.5-33.2,19l-15.3-4.7l-30.7-9.3l-206.9-62.9l22.9-51.7
	l-20.8,11.8l-25.2-56.1L291.3,92.5L411.3,137.2z"/>
<path class="st5" d="M28.3,27.7L28.3,27.7c-7,7-7,18.4,0,25.5l133.2,133.2l25.5-25.5L53.7,27.7C46.7,20.7,35.3,20.7,28.3,27.7z"/>
<circle class="st6" cx="191.9" cy="191.9" r="64.8"/>
<path class="st7" d="M170.2,213.6c-21.1-21.1-24.6-53.2-10.4-78c-4.9,2.8-9.5,6.3-13.7,10.4c-25.3,25.3-25.3,66.3,0,91.6
	s66.3,25.3,91.6,0c4.2-4.2,7.6-8.8,10.4-13.7C223.4,238.2,191.3,234.7,170.2,213.6z"/>
<circle class="st8" cx="214.9" cy="168.8" r="15.9"/>
<circle class="st6" cx="104.3" cy="279.5" r="64.8"/>
<path class="st7" d="M82.6,301.2c-21.1-21.1-24.6-53.2-10.4-78c-4.9,2.8-9.5,6.3-13.7,10.4c-25.3,25.3-25.3,66.3,0,91.6
	c25.3,25.3,66.3,25.3,91.6,0c4.2-4.2,7.6-8.8,10.4-13.7C135.8,325.8,103.7,322.3,82.6,301.2z"/>
<ellipse transform="matrix(7.088900e-02 -0.9975 0.9975 7.088900e-02 -137.5172 365.2873)" class="st8" cx="127.3" cy="256.5" rx="15.9" ry="15.9"/>
<circle class="st6" cx="279.5" cy="104.3" r="64.8"/>
<path class="st7" d="M257.8,126c-21.1-21.1-24.6-53.2-10.4-78c-4.9,2.8-9.5,6.3-13.7,10.4c-25.3,25.3-25.3,66.3,0,91.6
	c25.3,25.3,66.3,25.3,91.6,0c4.2-4.2,7.6-8.8,10.4-13.7C311,150.6,278.9,147.1,257.8,126z"/>
<circle class="st8" cx="302.5" cy="81.2" r="15.9"/>
<g>
	<path class="st7" d="M489.2,317.1c-2,7.5-4.3,14.9-6.9,22.1c-2.7,7.3-5.7,14.4-9,21.3c-11.5,23.9-26.8,45.5-45.1,64.2
		c-1.1,1.1-2.2,2.3-3.4,3.4c-2-1.6-3.9-3.3-5.8-5.1c-4.7-4.7-8.5-9.9-11.4-15.5c-13-24.5-9.2-55.5,11.4-76.2
		C437.9,312.4,465.8,307.6,489.2,317.1z"/>
	<path class="st7" d="M423,419c1.8,1.8,3.5,3.8,5.1,5.8c-1.1,1.1-2.2,2.3-3.4,3.4c-3,3-6.2,5.9-9.4,8.7
		c-7.5,6.6-15.4,12.7-23.6,18.4c-22.4,15.3-47.6,26.9-74.6,34c-9.5-23.4-4.8-51.2,14.2-70.2c20.6-20.6,51.7-24.4,76.2-11.4
		C413.1,410.5,418.3,414.3,423,419z"/>
</g>
<path class="st6" d="M389.6,389.6c-18.1,18.1-44.3,23.3-67,15.4c-3.1-1.1-6.2-2.4-9.1-4c-5.6-3-10.8-6.8-15.5-11.5
	s-8.5-9.9-11.4-15.5c-13-24.5-9.2-55.5,11.4-76.2c20.6-20.6,51.7-24.4,76.2-11.4c5.6,2.9,10.8,6.8,15.5,11.4s8.5,9.9,11.4,15.5
	c1.1,2.2,2.2,4.4,3,6.6C413.3,343.3,408.4,370.8,389.6,389.6z"/>
<path class="st7" d="M322.1,365.5c-21.1-21.1-24.6-53.2-10.4-78c-4.9,2.8-9.5,6.3-13.7,10.4c-25.3,25.3-25.3,66.3,0,91.6
	c25.3,25.3,66.3,25.3,91.6,0c4.2-4.2,7.6-8.8,10.4-13.7C375.3,390.1,343.2,386.6,322.1,365.5z"/>
<circle class="st8" cx="366.9" cy="320.8" r="15.9"/>
<path class="st6" d="M302,477.2c-23.3,23.3-59.8,25.1-85.2,5.6h0c-2.2-1.7-4.4-3.6-6.4-5.6c-25.3-25.3-25.3-66.3,0-91.6
	c20.6-20.6,51.7-24.4,76.2-11.4c5.6,3,10.8,6.8,15.5,11.4s8.5,9.9,11.4,15.5c1.6,3,2.9,6,4,9.1c0,0,0,0,0,0
	C325.3,432.9,320.1,459.1,302,477.2z"/>
<path class="st7" d="M234.5,453.1c-21.1-21.1-24.6-53.2-10.4-78c-4.9,2.8-9.5,6.3-13.7,10.4c-25.3,25.3-25.3,66.3,0,91.6
	s66.3,25.3,91.6,0c4.2-4.2,7.6-8.8,10.4-13.7C287.7,477.7,255.6,474.2,234.5,453.1z"/>
<circle class="st8" cx="279.2" cy="408.4" r="15.9"/>
<path class="st6" d="M477.2,302c-17.9,17.9-43.8,23.2-66.3,15.7c-3.4-1.1-6.7-2.5-9.9-4.2c-5.6-2.9-10.8-6.8-15.5-11.4
	c-4.7-4.7-8.5-9.9-11.4-15.5c-13-24.5-9.2-55.5,11.4-76.2c25.3-25.3,66.3-25.3,91.6,0C502.5,235.7,502.5,276.7,477.2,302z"/>
<path class="st7" d="M409.7,277.9c-21.1-21.1-24.6-53.2-10.4-78c-4.9,2.8-9.5,6.3-13.7,10.4c-25.3,25.3-25.3,66.3,0,91.6
	c25.3,25.3,66.3,25.3,91.6,0c4.2-4.2,7.6-8.8,10.4-13.7C462.9,302.5,430.8,299,409.7,277.9z"/>
<circle class="st8" cx="454.5" cy="233.1" r="15.9"/>
<path class="st6" d="M180.2,351.4c25.3,25.3,25.3,66.3,0,91.6c-13.6,13.6-31.7,19.9-49.5,18.9c0,0,0,0,0,0
	c-22.7-13.8-42.8-31.2-59.8-51.5c-4.3-20.6,1.6-43,17.6-59C113.9,326.1,154.9,326.1,180.2,351.4z"/>
<path class="st7" d="M190.7,429.4c-2.8,4.9-6.3,9.5-10.4,13.7c-13.6,13.6-31.7,19.9-49.5,18.9c-22.7-13.8-42.8-31.2-59.8-51.5
	c-4.3-20.6,1.6-43,17.6-59c4.2-4.2,8.8-7.6,13.7-10.4c-14.2,24.7-10.7,56.8,10.4,78C133.9,440.1,165.9,443.5,190.7,429.4z"/>
<circle class="st8" cx="157.5" cy="374.2" r="15.9"/>
<circle class="st6" cx="309.6" cy="222" r="64.8"/>
<path class="st7" d="M287.9,243.7c-21.1-21.1-24.6-53.2-10.4-78c-4.9,2.8-9.5,6.3-13.7,10.4c-25.3,25.3-25.3,66.3,0,91.6
	c25.3,25.3,66.3,25.3,91.6,0c4.2-4.2,7.6-8.8,10.4-13.7C341.2,268.3,309.1,264.9,287.9,243.7z"/>
<circle class="st8" cx="332.7" cy="199" r="15.9"/>
<circle class="st6" cx="222" cy="309.6" r="64.8"/>
<path class="st7" d="M200.3,331.3c-21.1-21.1-24.6-53.2-10.4-78c-4.9,2.8-9.5,6.3-13.7,10.4c-25.3,25.3-25.3,66.3,0,91.6
	c25.3,25.3,66.3,25.3,91.6,0c4.2-4.2,7.6-8.8,10.4-13.7C253.5,355.9,221.5,352.5,200.3,331.3z"/>
<circle class="st8" cx="245.1" cy="286.6" r="15.9"/>
<circle class="st6" cx="397.3" cy="134.4" r="64.8"/>
<path class="st7" d="M375.6,156.1c-21.1-21.1-24.6-53.2-10.4-78c-4.9,2.8-9.5,6.3-13.7,10.4c-25.3,25.3-25.3,66.3,0,91.6
	s66.3,25.3,91.6,0c4.2-4.2,7.6-8.8,10.4-13.7C428.8,180.7,396.7,177.3,375.6,156.1z"/>
<circle class="st8" cx="420.3" cy="111.4" r="15.9"/>
<path class="st2" d="M128.5,102.6l11.7,11.7c60.6,60.6,60.6,158.9,0,219.6l-11.7,11.7l-11.7-11.7c-60.6-60.6-60.6-158.9,0-219.6
	L128.5,102.6z"/>
<path class="st3" d="M128.5,102.6v243l-11.7-11.7c-60.6-60.6-60.6-158.9,0-219.6L128.5,102.6z"/>
<g>
	<path class="st7" d="M317.4,410.2c7.8,22.7,2.7,48.9-15.4,67c-23.3,23.3-59.8,25.1-85.2,5.6C299.1,468.8,317.1,411.3,317.4,410.2z"
		/>
	<path class="st7" d="M404.1,320c9.2,23.3,4.3,50.8-14.5,69.6c-18.1,18.1-44.3,23.3-67,15.4C396.7,381.3,404.1,320,404.1,320z"/>
	<path class="st7" d="M477.2,302c-17.9,17.9-43.8,23.2-66.3,15.7c67.1-37,66.3-107.3,66.3-107.3C502.5,235.7,502.5,276.7,477.2,302z
		"/>
</g>
</svg>
