<svg id="Calque_1" data-name="Calque 1" xmlns="http://www.w3.org/2000/svg" viewBox="0 0 207.27 238.3"><defs><style>.cls-1{fill:#b8860d;}</style></defs><title>logo_dbe</title><path class="cls-1" d="M221.55,148a9.41,9.41,0,0,0-5.18,2.93,34.75,34.75,0,0,0-4.86,6.25,65.46,65.46,0,0,0-4.32,8.24q-2,4.53-3.59,8.71c-1.06,2.79-2,5.37-2.86,7.72s-1.49,4.14-1.93,5.38c-1.24,3-2.77,6.78-4.59,11.31s-3.81,9.19-6,14-4.48,9.5-6.92,14a65.21,65.21,0,0,1-7.38,11.18q-4.51,5-9.5,6.31a11.4,11.4,0,0,1-8.58-.73,24,24,0,0,1-4.52-3.52,16.84,16.84,0,0,1-3.59-5.06,15.36,15.36,0,0,1-1.4-6.31,14.5,14.5,0,0,1,1.93-7.18,11.14,11.14,0,0,1,5.52-5.39,6,6,0,0,1,6,.46,1.11,1.11,0,0,1,.46.6,1.54,1.54,0,0,1,.14.87.67.67,0,0,1-.54.53,2.24,2.24,0,0,1-1.39-.27,5.91,5.91,0,0,0-4.59-.26q-2.33.79-4.32,4.65a11.26,11.26,0,0,0-1.27,6.45,16,16,0,0,0,1.93,6.25,14.33,14.33,0,0,0,4.19,4.72,10.71,10.71,0,0,0,5.65,2.06,10.13,10.13,0,0,0,6.19-1.79q3.12-2,5.91-7c0-.09.43-1.08,1.27-3s1.84-4.08,3-6.52,2.28-4.89,3.39-7.38,2-4.39,2.59-5.72c1.16-2.57,2.46-5.76,3.93-9.57s3-7.85,4.59-12.1,3.23-8.56,4.92-12.9,3.32-8.34,4.92-12,3.1-6.76,4.52-9.38a17.27,17.27,0,0,1,3.85-5.25,11.84,11.84,0,0,1,6.45-2.39A10.13,10.13,0,0,1,221.55,148Zm19.28-6.65a36.07,36.07,0,0,1,8,10.77,50.32,50.32,0,0,1,4.33,13.63,63.3,63.3,0,0,1,.59,15.76,87.72,87.72,0,0,1-11.43,36.31,68.34,68.34,0,0,1-11.71,15,49.12,49.12,0,0,1-13.83,9.44A30.55,30.55,0,0,1,202,244.92a17.92,17.92,0,0,1-5.58-1,12.38,12.38,0,0,1-3.66-2.06,9.29,9.29,0,0,1-2.13-2.53,15.59,15.59,0,0,1-1.13-2.53,9.38,9.38,0,0,1-.4-3.59,17.06,17.06,0,0,1,.74-3.92,21.84,21.84,0,0,1,1.52-3.72,14.25,14.25,0,0,1,2-3,15.45,15.45,0,0,1,5.72-4.19,10.29,10.29,0,0,1,5.58-.67,11.47,11.47,0,0,1,5.12,2.4,21.33,21.33,0,0,1,4.46,4.85c.35.44.17.84-.53,1.2s-1.2.31-1.47-.14a19.38,19.38,0,0,0-3.12-3.65,8.3,8.3,0,0,0-4.32-2.2,9.05,9.05,0,0,0-5.39.6,13.19,13.19,0,0,0-4.45,3.13,14.81,14.81,0,0,0-3.53,5.91,9.24,9.24,0,0,0-.33,5.39,8.59,8.59,0,0,0,3.79,5,13.48,13.48,0,0,0,6.58,2.26,22.76,22.76,0,0,0,11.77-2,32.08,32.08,0,0,0,10-7.52,59.6,59.6,0,0,0,8.45-12.1,170.44,170.44,0,0,0,7.45-15.76,94.38,94.38,0,0,0,4.12-12.76,84.33,84.33,0,0,0,2.13-13.7,61.74,61.74,0,0,0-1.6-21.08,30.17,30.17,0,0,0-8.91-15,32.76,32.76,0,0,0-19.42-8.51q-10.91-.93-22.2,6a12.55,12.55,0,0,1-3.39,1.53c-.94.23-1.45.18-1.53-.13s.37-.88,1.39-1.73a32.07,32.07,0,0,1,5.52-3.26,55.11,55.11,0,0,1,7.91-3.19,52.6,52.6,0,0,1,8.45-1.93,40.21,40.21,0,0,1,8.31-.33,23.18,23.18,0,0,1,7.51,1.73,51.92,51.92,0,0,1,6.92,3.59A43.8,43.8,0,0,1,240.83,141.32Z" transform="translate(-146.35 -131)"/><path class="cls-1" d="M262.05,233.08c-.26.53-1.06,2.4-2.39,5.59s-3,7.16-5.06,11.9-4.27,9.89-6.71,15.43-4.9,10.9-7.38,16.09-4.86,9.88-7.12,14.09a54.45,54.45,0,0,1-5.91,9.25q-4.39,5-9.38,6.25a12.13,12.13,0,0,1-8.58-.67,21.31,21.31,0,0,1-4.59-3.52,17.74,17.74,0,0,1-3.52-5.06,15.68,15.68,0,0,1-1.4-6.31,15.36,15.36,0,0,1,1.93-7.32,11.25,11.25,0,0,1,5.52-5.25,6.2,6.2,0,0,1,6,.33,2.65,2.65,0,0,1,.47.67,1.24,1.24,0,0,1,.13.79.66.66,0,0,1-.53.54,2.74,2.74,0,0,1-1.53-.27,6.14,6.14,0,0,0-4.52-.13q-2.26.79-4.26,4.65a11.33,11.33,0,0,0-1.26,6.45,15.7,15.7,0,0,0,1.93,6.25,14.22,14.22,0,0,0,4.19,4.72,10.6,10.6,0,0,0,5.58,2.06,10.28,10.28,0,0,0,6.19-1.79q3.18-2,5.85-7.05c.09-.09.55-1.08,1.39-3s1.84-4.1,3-6.58,2.28-5,3.39-7.45,1.92-4.39,2.46-5.72q5.17-11.7,10.1-23.47t10.38-23.47a135.47,135.47,0,0,1,6.51-12.5,33.5,33.5,0,0,1,8.51-9.71,8.71,8.71,0,0,1,5.19-2,10.11,10.11,0,0,1,4.92,1.33,12.32,12.32,0,0,0-6.78,3.06,26.43,26.43,0,0,0-4.92,6.12A67.78,67.78,0,0,0,266,225.1Q264.18,229.23,262.05,233.08Zm39-5.85a30.2,30.2,0,0,1-5.19,11,59.94,59.94,0,0,1-9.57,9.91q8.37,8.37,10.37,17.75t-3.19,21.48a33,33,0,0,1-9.25,12.77,44.46,44.46,0,0,1-12.5,7.44,40.26,40.26,0,0,1-12.7,2.8,22.94,22.94,0,0,1-9.84-1.33,14.27,14.27,0,0,1-7.44-5.72c-1-1.42-1.09-2.2-.34-2.33s1.89.51,3.39,1.93a14.88,14.88,0,0,0,7.25,3.92,31.24,31.24,0,0,0,9,.2,21.69,21.69,0,0,0,8.51-2.66,28.33,28.33,0,0,0,7.51-6.05,39.47,39.47,0,0,0,5.92-8.91,49,49,0,0,0,3.86-11.24,46.43,46.43,0,0,0,1-13.16,31.06,31.06,0,0,0-3.52-12.24c-1.15-2.12-2.62-2.7-4.39-1.73-2.84,1.42-5.12,2-6.85,1.6a6.36,6.36,0,0,1-3.79-2,3.46,3.46,0,0,1-.73-3.66,5.24,5.24,0,0,1,2.46-2.86,9.07,9.07,0,0,1,4.52-.93,12.93,12.93,0,0,1,5.32,1.06q1.2.54,2.4-.93A47.94,47.94,0,0,0,290,232a45.54,45.54,0,0,0,3.4-14.29q1.19-14.5-7.72-19.82a16.77,16.77,0,0,0-5.45-1.53,30,30,0,0,0-8.71.07,36.07,36.07,0,0,0-10.11,3.06,29.62,29.62,0,0,0-9.77,7.44.77.77,0,0,1-1.26-.33,1.71,1.71,0,0,1,.33-1.93,22.42,22.42,0,0,1,8.18-6.51,41.54,41.54,0,0,1,10.17-3.4,43.08,43.08,0,0,1,10-.79,33.74,33.74,0,0,1,7.58,1,20.5,20.5,0,0,1,9.65,5.66,22,22,0,0,1,4.78,8.44,27.57,27.57,0,0,1,1.13,9.51A48.88,48.88,0,0,1,301,227.23ZM271,249.7a3.67,3.67,0,0,0,3.26,1.2c1.2-.18,2.95-1.28,5.25-3.32a11.35,11.35,0,0,0-2.79-2.33,6,6,0,0,0-3.59-.47,4.84,4.84,0,0,0-1.6.6,3,3,0,0,0-1.19,1.2,2.69,2.69,0,0,0-.34,1.53A2.49,2.49,0,0,0,271,249.7Z" transform="translate(-146.35 -131)"/><path class="cls-1" d="M322.09,338.08c.08-.71.13-1.24.13-1.6a6,6,0,0,1,.13-1.19,22.88,22.88,0,0,1,3.06-8.05,24.85,24.85,0,0,1,5.32-6.18,18.08,18.08,0,0,1,6.65-3.53,10.79,10.79,0,0,1,6.78.2,9.2,9.2,0,0,1,5.45,5.59,16.65,16.65,0,0,1,.53,9.44,53.48,53.48,0,0,1-9.64,18.89,50.2,50.2,0,0,1-13.89,12A41.83,41.83,0,0,1,311.05,369a33.33,33.33,0,0,1-14.76-1.26,22.81,22.81,0,0,1-9.45-5.92,26.34,26.34,0,0,1-5.78-9.51,34.78,34.78,0,0,1-1.86-12.1,43.65,43.65,0,0,1,2.46-13.7,43,43,0,0,1,8.84-15.36,52.21,52.21,0,0,1,12.57-10.44,46.32,46.32,0,0,1-2.53-15.82,32.51,32.51,0,0,1,3.59-14.63,38.16,38.16,0,0,1,10.44-13,36.83,36.83,0,0,1,13.5-6.45,30,30,0,0,1,8.31-.93,20.57,20.57,0,0,1,8.05,2,20.31,20.31,0,0,1,2.72,1.52,14.77,14.77,0,0,1,2.8,2.4,19.84,19.84,0,0,1,2.26,3.06,9.49,9.49,0,0,1,1.26,3.52,13.42,13.42,0,0,1-.8,7.12,16.8,16.8,0,0,1-3.59,5.38,13.65,13.65,0,0,1-4.46,2.73,18.68,18.68,0,0,1-5.25,1.2,19.09,19.09,0,0,1-5.05-.27A8.42,8.42,0,0,1,330.6,277a.77.77,0,0,1-.34-.8c.05-.35.25-.44.6-.26a14.88,14.88,0,0,0,10.77,1.39,13.32,13.32,0,0,0,7.85-5.25,12.36,12.36,0,0,0,2.19-4.65,10.19,10.19,0,0,0,0-4.33,8.72,8.72,0,0,0-1.86-3.72,11.86,11.86,0,0,0-3.26-2.73,14.5,14.5,0,0,0-7.11-2.26,25.31,25.31,0,0,0-7.51.93A30.22,30.22,0,0,0,316,267q-6.31,8.72-7.38,21.21a20.69,20.69,0,0,0,0,4.72c.18,1.64.31,3.22.4,4.72a27.44,27.44,0,0,1,7.58-2.66,18,18,0,0,1,5.72-.13,12.21,12.21,0,0,1,3.92,1.26,6.5,6.5,0,0,1,3.73,5.39q.33,2.26-1.8,4.92a8,8,0,0,1-2.59,2.13,10.44,10.44,0,0,1-3,1.06q-9.31,2-17.56-6a.92.92,0,0,0-1.33.06c-.44.4-.84.74-1.19,1a24.34,24.34,0,0,0-7.25,7,45.75,45.75,0,0,0-5.65,10.77,50.48,50.48,0,0,0-2.93,12.84,37.67,37.67,0,0,0,.93,13q2,7.71,6.19,11.37a22.57,22.57,0,0,0,9.9,5,29,29,0,0,0,12.3,0,37.71,37.71,0,0,0,12.11-4.92,45,45,0,0,0,18-21.95,25.88,25.88,0,0,0,2.13-9,11.24,11.24,0,0,0-1.19-5.59,6.12,6.12,0,0,0-3.2-2.79,10.75,10.75,0,0,0-3.72-.73,13.44,13.44,0,0,0-9.17,3.59,25.25,25.25,0,0,0-6.12,9.71,12,12,0,0,0-.87,2.26q-.33,1.2-.6,2.79c-.08.8-.33,1.18-.73,1.13S322.09,338.79,322.09,338.08Zm-12.24-38.3a11.31,11.31,0,0,0,2.86,4.52,12.28,12.28,0,0,0,8.91,3.53,6.42,6.42,0,0,0,4.05-1.53,9.38,9.38,0,0,0,2.73-3,2.73,2.73,0,0,0,.2-1.92,5.47,5.47,0,0,0-3.06-3.93,12.34,12.34,0,0,0-5.32-1.13,19.52,19.52,0,0,0-5.85.93A11.12,11.12,0,0,0,309.85,299.78Z" transform="translate(-146.35 -131)"/></svg>